<?xml version="1.0" encoding="UTF-8"?><svg id="a" xmlns="http://www.w3.org/2000/svg" viewBox="0 0 40.71 51.64"><defs><style>.b{fill:#fff;}</style></defs><g><path class="b" d="M16.67,8.81v3.57c0,2.83-.05,5.29-.39,7.46-.56,3.57-1.71,5.92-3.21,7.8-.15,.19-.29,.27-.36,.27s-.12-.05-.12-.17c0-.1,.02-.24,.12-.41,1.18-2.39,1.76-4.52,2.1-8.02,.19-2.13,.27-4.4,.27-6.47s-.12-3.94-.17-5.19v-.17c0-.15,.02-.19,.1-.19,.05,0,.1,.02,.17,.05,.56,.29,1.33,.75,1.74,.99h13.26c.19,0,.29-.07,.36-.17,.41-.53,.68-.82,1.06-1.3,.05-.05,.1-.07,.14-.07s.12,.02,.19,.07c.63,.46,1.18,.92,1.91,1.55,.1,.07,.14,.17,.14,.24,0,.1-.1,.17-.34,.17H16.67Zm12.54,4.47c.63,.97,1.4,1.74,2.37,2.29,.65,.36,1.38,.63,2.2,.82,.12,.02,.19,.1,.19,.17s-.07,.15-.17,.17c-.55,.22-.65,.51-.87,1.11-.02,.07-.05,.1-.1,.1-.1,0-.19-.07-.29-.12-1.5-.85-2.78-2.17-3.74-4.54v.82c0,1.33,.05,2.92,.1,4.13,0,.12,.02,.22,.02,.29,0,.31-.12,.44-.68,.48h-.22c-.39,0-.46-.12-.46-.41v-.24c.07-.97,.05-2.29,.07-3.53-1.01,1.26-2.58,2.37-3.99,3.12-.02,.02-.07,.02-.1,.02-.07,0-.14-.07-.14-.15,0-.05,.02-.07,.05-.1,1.3-1.06,2.8-2.44,3.7-4.44h-5.07v.48c1.04,.36,1.91,.6,2.37,1.33,.1,.17,.15,.31,.15,.48,0,.39-.27,.7-.58,.7-.19,0-.41-.15-.58-.51-.17-.41-.51-1.09-1.35-1.69,0,.48-.02,1.01-.02,1.55,0,.92,.02,1.84,.07,2.61,0,.12,.02,.22,.02,.29,0,.34-.12,.44-.68,.48h-.19c-.41,0-.48-.12-.48-.41v-.24c.02-.89,.1-2.25,.12-3.41-.92,1.18-2.46,2.34-3.79,3.12-.05,.02-.07,.02-.1,.02h-.02c-.07,0-.12-.05-.12-.12,0-.05,.02-.1,.07-.15,1.33-1.11,2.66-2.61,3.57-4.54h-1.01c-.68,0-1.47,.05-1.76,.12h-.1c-.1,0-.15-.02-.22-.15-.07-.15-.17-.34-.22-.53,0-.05-.02-.07-.02-.12s.02-.07,.07-.07,.1,.02,.17,.05c.39,.15,1.26,.22,2.08,.22h1.43v-1.62c-.87,.07-1.98,.12-2.95,.12-.17,0-.24-.07-.24-.15s.07-.17,.24-.19c2.13-.31,3.99-.92,5.05-1.45,.1-.05,.12-.12,.22-.12,.02,0,.1,.02,.17,.07,.44,.31,.72,.56,1.23,.97,.1,.07,.14,.19,.14,.27,0,.12-.07,.19-.22,.19h-.02s-.07,0-.14-.02c-.19-.07-.27-.1-.36-.1-.07,0-.15,0-.24,.02-.58,.12-1.09,.19-1.74,.27v1.74h.77c.17,0,.27,0,.39-.15,.12-.14,.58-.72,.75-.94,.07-.07,.12-.12,.17-.12s.1,.05,.17,.1c.34,.27,.94,.8,1.26,1.11h2.08v-1.62c-.87,.07-1.74,.12-2.71,.12-.15,0-.24-.07-.24-.15s.1-.17,.24-.19c2.05-.34,3.99-.92,5.05-1.45,.1-.05,.12-.12,.22-.12,.02,0,.1,.02,.17,.07,.43,.31,.72,.56,1.23,.97,.1,.07,.15,.19,.15,.27,0,.12-.07,.19-.22,.19h-.02s-.07,0-.14-.02c-.19-.07-.27-.1-.36-.1-.07,0-.14,0-.24,.02-.58,.12-1.33,.22-1.98,.29v1.71h1.64c.17,0,.27,0,.39-.15,.12-.14,.58-.72,.75-.94,.07-.07,.12-.12,.17-.12s.1,.05,.17,.1c.39,.31,1.14,.97,1.38,1.23,.1,.1,.12,.17,.12,.22,0,.1-.1,.15-.29,.15h-3.91Zm1.5,13.94c0,.53-.22,.68-.8,.68h-.1c-.48,0-.7-.17-.7-.7v-.07c0-.17,.02-.36,.02-.56h-8.53v.63c0,.63-.22,.75-.87,.75h-.1c-.43,0-.65-.15-.65-.6v-.14c.1-1.14,.15-3.12,.15-4.81,0-1.5-.05-2.8-.15-3.14-.05-.17-.07-.29-.07-.36,0-.1,.02-.12,.07-.12s.12,0,.22,.05c.39,.19,1.71,.89,1.71,.89h7.8c.22,0,.27-.05,.36-.17,.1-.15,.46-.53,.56-.7,.07-.07,.12-.12,.19-.12,.05,0,.1,.02,.19,.1,.31,.24,.99,.72,1.26,.94,.12,.1,.19,.19,.19,.29,0,.12-.1,.24-.34,.34-.27,.19-.46,.19-.46,.46-.02,.63-.05,1.74-.05,2.97,0,1.06,.05,2.25,.07,3.31v.1Zm-10.07-7.03c0,.58,0,1.33-.02,2.49h8.55c0-1.14,0-1.93-.02-2.49h-8.5Zm-.02,2.97v2.92h8.53c.02-1.01,.02-1.81,.02-2.92h-8.55Z"/><path class="b" d="M18.65,41.7c0,1.86,0,3.79,.02,5.36,1.18-.29,2.32-.6,3.26-.92,.1-.02,.17-.05,.24-.05,.15,0,.24,.05,.24,.15,0,.07-.07,.15-.24,.24-2.27,1.14-6.01,2.51-8,3.14-.17,.05-.19,.22-.24,.48-.05,.24-.19,.39-.34,.39-.12,0-.24-.1-.31-.34-.15-.41-.51-1.59-.63-1.93-.02-.05-.02-.1-.02-.12,0-.07,.05-.1,.15-.1h.22c.27-.02,.63,0,.97-.05,0-1.18,.02-3.14,.02-4.73,0-1.21-.02-2.2-.05-2.49-.05-.48-.1-.72-.1-.82,0-.07,.02-.1,.07-.1s.12,.02,.19,.02c.6,.07,.94,.17,1.47,.27,.29,.05,.43,.17,.43,.29s-.15,.27-.46,.36c-.31,.12-.27,.39-.29,.6-.02,.39-.02,1.91-.02,3.5v2.9c.6-.1,1.43-.27,2.05-.39,.02-1.21,.02-2.71,.02-4.23,0-2.08,0-4.2-.02-5.8h-1.62v.41c0,.6-.17,.72-.8,.72h-.1c-.43,0-.6-.15-.6-.56v-.17c.02-1.21,.15-2.87,.15-4.3,0-1.21-.05-2.22-.19-2.61-.07-.19-.1-.31-.1-.39,0-.1,.02-.12,.1-.12,.05,0,.12,.02,.19,.07,.41,.17,1.67,.85,1.67,.85h3.33c.22,0,.27-.07,.34-.15,.22-.24,.48-.53,.6-.68,.05-.07,.1-.12,.17-.12,.05,0,.12,.02,.22,.1,.31,.24,.87,.68,1.13,.92,.1,.1,.17,.22,.17,.31s-.07,.22-.29,.31c-.29,.17-.48,.17-.48,.44-.02,.85-.02,1.79-.02,2.78,0,.7,.02,1.45,.02,2.22v.1c0,.51-.22,.65-.82,.65h-.05c-.46,0-.63-.15-.63-.63v-.17h-1.01c0,1.14-.02,2.46-.02,3.86h.17c.17,0,.27,0,.39-.15s.68-.89,.85-1.11c.07-.07,.12-.12,.17-.12s.1,.05,.17,.1c.39,.31,1.28,1.14,1.52,1.4,.1,.1,.12,.17,.12,.22,0,.1-.1,.15-.29,.15h-3.09Zm1.06-4.83c.02-1.18,.05-2.25,.05-3.24,0-.68-.02-1.3-.02-1.88h-4.03c-.02,.97-.02,1.96-.02,3.29v1.84h4.03Zm10.22-4.78c.14,0,.24,0,.36-.14,.14-.15,.58-.63,.65-.7s.14-.12,.22-.12,.15,.05,.24,.12c.24,.19,.87,.72,1.23,1.04,.19,.15,.27,.29,.27,.41,0,.17-.19,.27-.48,.31-.44,.05-.63,.22-.77,.51-.72,1.43-1.62,2.85-2.92,4.25,1.3,1.06,3.29,1.79,5.58,2.15,.14,.02,.22,.1,.22,.17s-.07,.14-.22,.17c-.41,.1-.87,.56-.94,1.43-.02,.1-.05,.19-.19,.19-.05,0-.12-.02-.22-.05-2.08-.85-3.82-1.86-5.05-3.16-1.57,1.45-3.77,2.83-6.5,3.96-.07,.02-.12,.05-.17,.05-.12,0-.17-.07-.17-.17,0-.07,.05-.19,.15-.24,2.49-1.43,4.42-2.95,5.89-4.59-.75-1.06-1.38-2.29-2-3.72-.75,1.33-1.64,2.54-3.09,3.65-.07,.05-.14,.07-.19,.07-.07,0-.14-.07-.14-.17,0-.05,.02-.14,.1-.22,1.88-2.39,3.04-5.15,3.12-7.46v-.17c0-.1,0-.12,.07-.12,.02,0,.1,0,.19,.02,.46,.1,1.71,.41,2.05,.53,.22,.07,.34,.22,.34,.34,0,.15-.17,.27-.53,.29-.36,.02-.34,.02-.46,.29-.14,.31-.29,.68-.48,1.09h3.87Zm1.93,18.04c0,.56-.24,.7-.82,.7h-.1c-.48,0-.65-.17-.65-.68v-.1c0-.29,.02-.6,.02-.92h-5.1v.99c0,.63-.17,.75-.82,.75h-.1c-.43,0-.65-.15-.65-.6v-.14c.1-1.14,.14-3.07,.14-4.73,0-1.47-.05-2.73-.14-3.09-.05-.12-.05-.24-.05-.31,0-.1,.02-.15,.1-.15,.1,0,.19,.05,.36,.12,.36,.19,1.47,.8,1.47,.8h4.37c.22,0,.27-.05,.36-.17,.1-.14,.46-.53,.56-.7,.07-.07,.12-.12,.19-.12,.05,0,.1,.02,.19,.1,.31,.24,.97,.72,1.23,.94,.12,.1,.19,.19,.19,.29,0,.12-.1,.24-.34,.34-.27,.19-.46,.19-.46,.46-.02,.63-.05,1.69-.05,2.9,0,1.04,.05,2.2,.07,3.26v.07Zm-1.55-1.47c.02-1.01,.05-2.1,.05-3.07s-.02-1.79-.05-2.34h-5.07c0,1.09-.02,3.12-.02,5.41h5.1Zm-4.49-16.09c-.12,.27-.27,.56-.43,.85,.8,1.4,1.52,2.56,2.39,3.48,1.06-1.35,1.83-2.78,2.39-4.32h-4.35Z"/></g><g><path class="b" d="M1.82,11.08s0-.06,.07-.06c.04,0,.05,.02,.07,.1,.05,.32,.12,.48,.25,.48,.05,0,.12-.03,.2-.09l2.99-2.46-.36-.41H2.4c-.23,0-.4,.14-.45,.67,0,.05-.03,.06-.07,.06h-.02s-.04,0-.04-.07v-1.95s.02-.07,.06-.07,.06,.04,.07,.06c.05,.5,.21,.64,.45,.64H7.85c.24,0,.39-.14,.45-.64,0-.02,.03-.06,.07-.06s.06,.03,.06,.07v1.95c0,.06,0,.07-.04,.07h-.02s-.06,0-.07-.06c-.04-.53-.21-.67-.45-.67h-2.41l2.16,2.4c.13,.15,.25,.22,.36,.22,.15,0,.27-.14,.35-.45,0-.04,.04-.07,.08-.07,.04,0,.05,.03,.05,.07v1.87s0,.08-.05,.08c-.04,0-.05-.03-.08-.08-.15-.42-.28-.71-.57-1.03l-1.92-2.12-3.38,2.84c-.22,.19-.43,.49-.48,.8,0,.04-.04,.05-.06,.05-.05,0-.07-.02-.07-.06v-2.08Z"/><path class="b" d="M5.11,13.54c2.07,0,3.43,1.11,3.43,3.07s-1.36,3.07-3.43,3.07-3.4-1.07-3.4-3.07,1.33-3.07,3.4-3.07Zm-.23,5.44c2.1,0,3.37-1.04,3.37-2.42,0-1.31-.94-2.31-2.87-2.32h-.03c-2.04,0-3.34,1.09-3.34,2.42,0,1.24,.98,2.32,2.87,2.32Z"/><path class="b" d="M1.82,21.82s.02-.07,.06-.07,.06,.04,.07,.06c.09,.57,.24,.85,.48,.85h1.95l3.57-2.18c.16-.1,.26-.27,.34-.58,0-.03,.04-.06,.06-.06,.04,0,.07,.03,.07,.07v1.86s0,.03-.03,.03h-.03s-.08-.02-.09-.06c-.06-.37-.16-.51-.26-.51-.03,0-.04,0-.07,.03l-3.15,1.92,2.83,1.69c.05,.03,.11,.04,.16,.04,.21,0,.41-.24,.5-.66,0-.03,0-.04,.08-.04,.04,0,.05,0,.05,.07v1.7s0,.08-.05,.08c-.07,0-.07-.04-.08-.08-.09-.32-.33-.56-.6-.72l-3.24-1.95H2.43c-.24,0-.43,.35-.48,.85,0,.02-.03,.06-.07,.06s-.06-.03-.06-.07v-2.32Z"/><path class="b" d="M5.11,26.43c2.07,0,3.43,1.11,3.43,3.07s-1.36,3.07-3.43,3.07-3.4-1.07-3.4-3.07,1.33-3.07,3.4-3.07Zm-.23,5.44c2.1,0,3.37-1.04,3.37-2.42,0-1.31-.94-2.31-2.87-2.32h-.03c-2.04,0-3.34,1.09-3.34,2.42,0,1.24,.98,2.32,2.87,2.32Z"/><path class="b" d="M1.82,38.8s.02-.07,.06-.07,.06,0,.07,.06c.04,.49,.21,.7,.45,.7H7.84c.07,0,.12,0,.12,0s-.04-.03-.13-.06l-5.77-2.27c-.18-.07-.23-.12-.23-.19,0-.09,.06-.12,.27-.21l5.43-2.17s.04-.02,.04-.03c0-.02-.04-.03-.15-.03H2.69c-.43,0-.65,.21-.74,.7,0,.05-.03,.06-.07,.06h-.02s-.04,0-.04-.07v-1.76s.02-.07,.06-.07,.06,.04,.07,.09c.1,.5,.32,.7,.74,.7H7.59c.38,0,.61-.16,.7-.73,0-.02,0-.06,.07-.06,.04,0,.06,.03,.06,.07v1.22c0,.07-.03,.13-.15,.19l-5.42,2.24,5.43,2.13c.11,.04,.14,.07,.14,.19v1.4s-.02,.07-.06,.07c-.06,0-.07-.04-.07-.07v-.03c0-.44-.29-.64-.59-.64H2.4c-.24,0-.39,.23-.45,.66,0,.05-.03,.1-.07,.1s-.06-.03-.06-.07v-2.04Z"/><path class="b" d="M1.82,41.67s.02-.07,.06-.07,.06,0,.07,.06c.09,.43,.17,.74,.41,.74H7.89c.24,0,.32-.31,.41-.74,0-.05,0-.06,.07-.06h.02s.04,0,.04,.07v2.12s-.02,.07-.06,.07c-.08,0-.06-.04-.07-.06-.09-.43-.17-.74-.41-.74H2.36c-.24,0-.32,.31-.41,.74,0,.02-.03,.06-.07,.06s-.06-.03-.06-.07v-2.12Z"/><path class="b" d="M7.85,46.21c.24,0,.38-.21,.45-.65,0-.04,.02-.06,.07-.06s.06,0,.06,.07v1.94s-.02,.07-.06,.07c-.05,0-.06-.02-.07-.06-.06-.44-.17-.65-.45-.65H3.31c-1.01,0-1.6-.48-1.6-1.3s.34-1.18,.91-1.18c.29,0,.42,.16,.42,.41,0,.21-.16,.36-.42,.36-.19,0-.24-.11-.37-.11-.21,0-.3,.1-.3,.51,0,.33,.27,.65,1.36,.65H7.85Z"/><path class="b" d="M1.82,48.35s.02-.07,.06-.07,.06,0,.07,.06c.09,.43,.17,.74,.41,.74H7.89c.24,0,.32-.31,.41-.74,0-.05,0-.06,.07-.06h.02s.04,0,.04,.07v2.12s-.02,.07-.06,.07c-.08,0-.06-.04-.07-.06-.09-.43-.17-.74-.41-.74H2.36c-.24,0-.32,.31-.41,.74,0,.02-.03,.06-.07,.06s-.06-.03-.06-.07v-2.12Z"/></g><rect class="b" x="10.35" y="5.88" width=".5" height="45.76"/><g><polygon class="b" points="36.58 4.7 36.87 4.78 36.82 7.65 35.72 8.67 35.25 7.25 36.58 4.7"/><polygon class="b" points="36.33 4.13 36.35 4.42 33.6 5.26 32.29 4.54 33.49 3.65 36.33 4.13"/><polygon class="b" points="36.8 3.71 36.52 3.82 34.87 1.46 35.16 0 36.38 .86 36.8 3.71"/><polygon class="b" points="37.34 4.03 37.15 3.8 38.88 1.5 40.36 1.33 39.92 2.75 37.34 4.03"/><polygon class="b" points="37.21 4.64 37.36 4.39 40.08 5.33 40.71 6.68 39.22 6.7 37.21 4.64"/></g></svg>